# AST/ASF file generated using VICON BodyLanguage
# -----------------------------------------------
:version 1.10
:name VICON
:units
  mass 1.0
  length 0.45
  angle deg
:documentation
   .ast/.asf automatically generated from VICON data using
   VICON BodyBuilder and BodyLanguage model FoxedUp or BRILLIANT.MOD
:root
   order TX TY TZ RX RY RZ
   axis XYZ
   position 0 0 0  
   orientation 0 0 0 
:bonedata
  begin
     id 1 
     name lhipjoint
     direction 0.602128 -0.715006 0.355257 
     length 2.21237 
     axis 0 0 0  XYZ
  end
  begin
     id 2 
     name lfemur
     direction 0.34202 -0.939693 0  
     length 6.71649  
     axis 0 0 20  XYZ
    dof rx ry rz
    limits (-160.0 20.0)
           (-70.0 70.0)
           (-60.0 70.0)
  end
  begin
     id 3 
     name ltibia
     direction 0.34202 -0.939693 0   
     length 6.97123   
     axis 0 0 20   XYZ
    dof rx
    limits (-10.0 170.0)
  end
  begin
     id 4 
     name lfoot
     direction 0.0655697 -0.180151 0.981451   
     length 1.80924   
     axis -90 7.62852e-016 20   XYZ
    dof rx rz
    limits (-45.0 90.0)
           (-70.0 20.0)
  end
  begin
     id 5 
     name ltoes
     direction 1.53545e-011 -4.21827e-011 1   
     length 0.916331   
     axis -90 7.62852e-016 20   XYZ
    dof rx
    limits (-90.0 20.0)
  end
  begin
     id 6 
     name rhipjoint
     direction -0.625414 -0.698792 0.347201   
     length 2.2637  
     axis 0 0 0  XYZ 
  end
  begin
     id 7 
     name rfemur
     direction -0.34202 -0.939693 0   
     length 7.07595   
     axis 0 0 -20   XYZ
    dof rx ry rz
    limits (-160.0 20.0)
           (-70.0 70.0)
           (-70.0 60.0)
  end
  begin
     id 8 
     name rtibia
     direction -0.34202 -0.939693 0   
     length 7.22924   
     axis 0 0 -20   XYZ
    dof rx
    limits (-10.0 170.0)
 end
 begin
     id 9 
     name rfoot
     direction -0.0766747 -0.210662 0.974547   
     length 1.98482  
     axis -90 -7.62852e-016 -20   XYZ
    dof rx rz
    limits (-45.0 90.0)
           (-20.0 70.0)
  end
  begin
     id 10 
     name rtoes
     direction -1.53532e-011 -4.21867e-011 1   
     length 0.999842   
     axis -90 -7.62852e-016 -20   XYZ
    dof rx
    limits (-90.0 20.0)
  end
  begin
     id 11 
     name lowerback
     direction -0.0224668 0.997354 -0.0691422   
     length 2.09945   
     axis 0 0 0   XYZ
    dof rx ry rz
    limits (-20.0 45.0)
           (-30.0 30.0)
           (-30.0 30.0)
  end
  begin
     id 12 
     name upperback
     direction 0.0134698 0.998451 -0.0539888   
     length 2.09758   
     axis 0 0 0   XYZ
    dof rx ry rz
    limits (-20.0 45.0)
           (-30.0 30.0)
           (-30.0 30.0)
  end
  begin
     id 13 
     name thorax
     direction 0.0241905 0.99948 -0.0213333   
     length 2.10428   
     axis 0 0 0   XYZ
    dof rx ry rz
    limits (-20.0 45.0)
           (-30.0 30.0)
           (-30.0 30.0)
  end
  begin
     id 14 
     name lowerneck
     direction -0.00866847 0.995978 0.0891737   
     length 1.3959   
     axis 0 0 0   XYZ
    dof rx ry rz
    limits (-20.0 45.0)
           (-30.0 30.0)
           (-30.0 30.0)
  end
  begin
     id 15 
     name upperneck
     direction 0.0680679 0.992203 0.104404   
     length 1.39452   
     axis 0 0 0   XYZ
    dof rx ry rz
    limits (-20.0 45.0)
           (-30.0 30.0)
           (-30.0 30.0)
  end
  begin
     id 16
     name head
     direction 0.0242216 0.999358 0.0264054  
     length 1.40433  
     axis 0 0 0   XYZ
    dof rx ry rz
    limits (-20.0 45.0)
           (-30.0 30.0)
           (-30.0 30.0)
  end
  begin
     id 17 
     name lclavicle
     direction 0.929368 0.362991 -0.0671771  
     length 3.04887  
     axis 0 0 0   XYZ
    dof ry rz
    limits (-20.0 10.0)
           (0.0 20.0)
  end
  begin
     id 18 
     name lhumerus
     direction 1 -4.48967e-011 -7.13741e-028   
     length 4.77195   
     axis -180 -30 -90   XYZ
    dof rx ry rz
    limits (-60.0 90.0)
           (-90.0 90.0)
           (-90.0 90.0)
  end
  begin
     id 19
     name lradius
     direction 1 -4.48977e-011 3.60404e-027   
     length 2.98444   
     axis -180 -30 -90   XYZ
    dof rx
    limits (-10.0 170.0)
  end
  begin
     id 20
     name lwrist
     direction 1 -4.48997e-011 7.54877e-027   
     length 1.49222   
     axis -7.18178e-015 90 90   XYZ
    dof ry
    limits (-180.0 0.0)
 end
  begin
     id 21 
     name lhand
     direction 1 -4.489e-011 1.51105e-026   
     length 0.992285   
     axis -9.63605e-015 90 90   XYZ
    dof rx rz
    limits (-90.0 90.0)
           (-45.0 45.0)
  end
  begin
     id 22 
     name lfingers
     direction 1 -4.48998e-011 3.01948e-026   
     length 0.800006   
     axis -1.92718e-014 90 90   XYZ
    dof rx
    limits (0.0 90.0)
  end
  begin
     id 23
     name lthumb
     direction 0.707107 -6.34881e-011 0.707107   
     length 1.14865   
     axis -90 45 -3.53137e-014   XYZ
    dof rx rz
    limits (-45.0 45.0)
           (-45.0 45.0)
  end
  begin
     id 24 
     name rclavicle
     direction -0.945672 0.324529 0.0196374   
     length 3.4236  
     axis 0 0 0   XYZ 
    dof ry rz
    limits (-10.0 20.0)
           (-20.0 0.0)
  end
  begin
     id 25 
     name rhumerus
     direction -1 -4.4896e-011 1.02757e-029  
     length 4.62052   
     axis -180 30 90   XYZ
    dof rx ry rz
    limits (-90.0 60.0)
           (-90.0 90.0)
           (-90.0 90.0)
  end
  begin
     id 26 
     name rradius
     direction -1 -4.48982e-011 3.85962e-027   
     length 2.95332   
     axis -180 30 90   XYZ
    dof rx
    limits (-10.0 170.0)
  end
  begin
     id 27 
     name rwrist
     direction -1 -4.48961e-011 7.55118e-027   
     length 1.47666   
     axis -7.18178e-015 -90 -90   XYZ
    dof ry
    limits (-180.0 0.0)
  end
  begin
     id 28
     name rhand
     direction -1 -4.48984e-011 1.50994e-026   
     length 0.990956   
     axis -9.63605e-015 -90 -90   XYZ
    dof rx rz
    limits (-90.0 90.0)
           (-45.0 45.0)
  end
  begin
     id 29
     name rfingers
     direction -1 -4.4892e-011 3.02158e-026   
     length 0.798934   
     axis -1.92718e-014 -90 -90   XYZ
    dof rx
    limits (0.0 90.0)
  end
  begin
     id 30
     name rthumb
     direction -0.707107 -6.34916e-011 0.707107   
     length 1.14711   
     axis -90 -45 3.53137e-014   XYZ
    dof rx rz
    limits (-45.0 45.0)
           (-45.0 45.0)
  end
:hierarchy
  begin
    root lhipjoint rhipjoint lowerback
    lhipjoint lfemur
    lfemur ltibia
    ltibia lfoot
    lfoot ltoes
    rhipjoint rfemur
    rfemur rtibia
    rtibia rfoot
    rfoot rtoes
    lowerback upperback
    upperback thorax
    thorax lowerneck lclavicle rclavicle
    lowerneck upperneck
    upperneck head
    lclavicle lhumerus
    lhumerus lradius
    lradius lwrist
    lwrist lhand lthumb
    lhand lfingers
    rclavicle rhumerus
    rhumerus rradius
    rradius rwrist
    rwrist rhand rthumb
    rhand rfingers
  end

#!OML:ASF H:\ManfredObstacles\Project 1\Capture day 1\Session 1\Male.ASF
:FULLY-SPECIFIED
:DEGREES
137
root -2.27284 15.5362 41.0967 -171.547 -1.57521 -179.283
lowerback -9.4055 -0.121451 -1.27243
upperback 2.46981 0.00374148 -0.155988
thorax 7.89823 -0.0568996 0.552248
lowerneck 1.23933 -2.19178 -4.84767
upperneck -10.3 -2.8227 9.27101
head -3.03709 -1.80107 3.70217
rclavicle 5.46658e-015 1.43125e-014
rhumerus -35.1804 -19.5547 -78.084
rradius 30.3288
rwrist 29.6865
rhand -0.35481 -5.86343
rfingers 7.12502
rthumb 25.2505 -34.2126
lclavicle 5.46658e-015 1.43125e-014
lhumerus -31.7821 19.1217 75.4223
lradius 17.9192
lwrist -33.1603
lhand -8.10265 8.27654
lfingers 7.12502
lthumb 17.8101 37.481
rfemur -4.25958 -0.733029 24.0663
rtibia 33.1502
rfoot -27.633 18.3486
rtoes 23.5431
lfemur -38.1298 -1.55897 -20.5419
ltibia 34.4369
lfoot -2.15207 -6.4073
ltoes -5.48814
138
root -2.30274 15.5409 40.8991 -171.596 -1.91774 -179.621
lowerback -9.61402 -0.231834 -1.7432
upperback 2.52228 -0.075224 -0.247656
thorax 8.07851 -0.118145 0.707248
lowerneck 1.05799 -2.22921 -4.86059
upperneck -10.2023 -2.86974 9.39201
head -2.97165 -1.82573 3.73742
rclavicle -5.1684e-015 8.54774e-015
rhumerus -35.0936 -19.9262 -78.0658
rradius 30.1955
rwrist 29.6994
rhand -0.570556 -6.19424
rfingers 7.12502
rthumb 25.0438 -34.5724
lclavicle -5.1684e-015 8.54774e-015
lhumerus -31.7608 19.2382 75.3163
lradius 17.8289
lwrist -33.1328
lhand -8.27684 8.45786
lfingers 7.12502
lthumb 17.6424 37.6774
rfemur -3.92131 -0.420289 23.7216
rtibia 34.1953
rfoot -27.0212 17.8546
rtoes 22.2888
lfemur -37.59 -1.45919 -21.1799
ltibia 34.8574
lfoot -2.26681 -6.94093
ltoes -8.08817
139
root -2.33646 15.5464 40.7079 -171.675 -2.30418 -179.928
lowerback -8.93379 -0.217474 -1.87989
upperback 1.99086 -0.0428056 -0.565569
thorax 7.11621 -0.091499 0.456895
lowerneck 1.28254 -2.38759 -4.60791
upperneck -9.68067 -3.06474 9.51802
head -2.84116 -1.91784 3.73086
rclavicle -8.49804e-015 -2.78299e-015
rhumerus -36.1956 -20.5259 -77.8435
rradius 30.172
rwrist 29.619
rhand -0.945038 -6.29241
rfingers 7.12502
rthumb 24.6849 -34.7201
lclavicle -8.49804e-015 -2.78299e-015
lhumerus -32.5439 18.845 74.6665
lradius 17.7297
lwrist -33.1166
lhand -8.39086 8.45017
lfingers 7.12502
lthumb 17.5327 37.6796
rfemur -3.91984 -0.477326 23.3432
rtibia 35.7783
rfoot -25.8511 17.5185
rtoes 21.1244
lfemur -36.9614 -1.42832 -21.7713
ltibia 35.2812
lfoot -3.12566 -7.94966
ltoes -11.6524
140
root -2.37148 15.5528 40.5211 -171.846 -2.6062 -180.07
lowerback -8.9435 -0.231267 -2.1257
upperback 2.05743 -0.0319337 -0.575529
thorax 7.19327 -0.0980361 0.585986
lowerneck 1.22666 -2.43254 -4.61566
upperneck -9.74376 -3.1258 9.50836
head -2.84625 -1.94907 3.73066
rclavicle 3.8266e-015 -1.07344e-014
rhumerus -36.3598 -21.0982 -77.4602
rradius 30.1472
rwrist 29.6753
rhand -1.00334 -6.01538
rfingers 7.12502
rthumb 24.629 -34.4507
lclavicle 3.8266e-015 -1.07344e-014
lhumerus -32.4733 19.6677 74.3279
lradius 17.4419
lwrist -33.8478
lhand -8.4445 8.1927
lfingers 7.12502
lthumb 17.4811 37.4267
rfemur -4.17045 -0.775384 23.0366
rtibia 37.8915
rfoot -23.737 17.6552
rtoes 21.1578
lfemur -36.1821 -1.36617 -22.1442
ltibia 35.6819
lfoot -4.16216 -8.67723
ltoes -13.8977
141
root -2.40885 15.5626 40.3392 -172.035 -2.73185 -180.155
lowerback -8.83047 -0.163303 -2.13106
upperback 2.05905 0.0625487 -0.705981
thorax 7.12768 -0.0495695 0.466009
lowerneck 1.37945 -2.69247 -4.73445
upperneck -9.08031 -3.5098 9.45306
head -2.94888 -2.09393 4.14089
rclavicle -9.44227e-016 -2.50469e-014
rhumerus -36.7393 -21.569 -77.2731
rradius 30.3398
rwrist 29.4211
rhand -0.944806 -6.10109
rfingers 7.12502
rthumb 24.6851 -34.5288
lclavicle -9.44227e-016 -2.50469e-014
lhumerus -32.4789 19.8912 74.0546
lradius 17.3662
lwrist -34.1829
lhand -8.31366 8.24672
lfingers 7.12502
lthumb 17.607 37.4695
rfemur -4.75524 -1.2936 22.6445
rtibia 40.4858
rfoot -20.793 17.9871
rtoes 21.9638
lfemur -35.3597 -1.10802 -22.4847
ltibia 36.0187
lfoot -4.87235 -9.37111
ltoes -12.5229
142
root -2.45204 15.5768 40.1604 -172.107 -2.78752 -180.169
lowerback -8.77733 -0.0489344 -1.95836
upperback 1.9656 0.20166 -0.888522
thorax 6.99514 0.0303356 0.197875
lowerneck 1.64829 -2.83722 -4.46892
upperneck -8.94212 -3.69481 9.45049
head -2.94025 -2.19248 4.09503
rclavicle 7.65321e-015 3.97569e-015
rhumerus -37.1844 -21.9566 -77.1623
rradius 30.5714
rwrist 29.3253
rhand -0.628306 -6.14453
rfingers 7.12502
rthumb 24.9884 -34.5304
lclavicle 7.65321e-015 3.97569e-015
lhumerus -32.5116 19.1301 74.1513
lradius 17.5416
lwrist -33.5978
lhand -8.04372 8.51881
lfingers 7.12502
lthumb 17.8668 37.7181
rfemur -5.89506 -2.24968 22.2111
rtibia 43.5085
rfoot -17.0079 18.1288
rtoes 22.8382
lfemur -34.6821 -0.639418 -22.8472
ltibia 36.2418
lfoot -5.53989 -10.1364
ltoes -12.8026
143
root -2.49642 15.5942 39.9845 -172.069 -2.73911 -180.198
lowerback -8.80257 -0.000765858 -1.92319
upperback 1.86192 0.263353 -0.944407
thorax 6.8986 0.064021 0.128755
lowerneck 1.70921 -2.85954 -4.31119
upperneck -8.80338 -3.72253 9.36124
head -2.90496 -2.20309 4.02973
rclavicle 1.98785e-015 -1.19271e-015
rhumerus -37.418 -21.8263 -77.0928
rradius 30.7484
rwrist 29.0223
rhand -0.444698 -5.63082
rfingers 7.12502
rthumb 25.1644 -33.9921
lclavicle 1.98785e-015 -1.19271e-015
lhumerus -32.5732 18.1519 74.5911
lradius 17.8601
lwrist -32.5425
lhand -7.82755 8.61965
lfingers 7.12502
lthumb 18.0748 37.7998
rfemur -7.49068 -3.37897 21.6735
rtibia 46.9045
rfoot -12.6977 18.4928
rtoes 21.7282
lfemur -34.0268 -0.108378 -23.2488
ltibia 36.2306
lfoot -6.26182 -10.7027
ltoes -14.869
144
root -2.5379 15.6092 39.8144 -172.094 -2.55697 -180.396
lowerback -8.72728 -0.0488909 -2.23274
upperback 1.81746 0.226755 -0.886935
thorax 6.808 0.0330946 0.357878
lowerneck 1.58811 -2.7755 -4.43346
upperneck -8.66673 -3.61541 9.28235
head -2.84331 -2.13486 4.01419
rclavicle 1.2424e-015 -3.73715e-014
rhumerus -37.3534 -21.0138 -77.2041
rradius 30.9375
rwrist 28.1978
rhand -0.533924 -5.3989
rfingers 7.12502
rthumb 25.0789 -33.7721
lclavicle 1.2424e-015 -3.73715e-014
lhumerus -32.7275 17.4495 75.1538
lradius 18.281
lwrist -31.6344
lhand -7.68272 8.48738
lfingers 7.12502
lthumb 18.2141 37.6546
rfemur -9.08271 -4.16052 20.8595
rtibia 50.5915
rfoot -7.42241 18.4039
rtoes 24.8467
lfemur -33.2162 0.493469 -23.7814
ltibia 36.053
lfoot -6.65396 -11.1806
ltoes -13.8054
145
root -2.57823 15.6408 39.644 -172.195 -2.38235 -180.724
lowerback -8.57427 -0.0974581 -2.62417
upperback 1.80748 0.199751 -0.938307
thorax 6.71024 0.00474576 0.519941
lowerneck 1.60705 -2.69344 -4.4598
upperneck -8.68452 -3.50661 9.2657
head -2.86162 -2.08009 4.01294
rclavicle 1.49089e-016 3.57812e-015
rhumerus -37.2274 -20.3586 -77.4278
rradius 31.1712
rwrist 27.7372
rhand -0.541336 -5.67466
rfingers 7.12502
rthumb 25.0718 -34.0489
lclavicle 1.49089e-016 3.57812e-015
lhumerus -32.8955 16.4796 75.6906
lradius 18.8231
lwrist -30.6525
lhand -7.56761 8.40284
lfingers 7.12502
lthumb 18.3248 37.5597
rfemur -11.1786 -4.93765 19.9562
rtibia 54.4781
rfoot -4.96439 17.6701
rtoes 22.1427
lfemur -32.1867 1.27622 -24.4346
ltibia 35.6738
lfoot -6.85021 -11.9543
ltoes -11.5357
146
root -2.61425 15.659 39.4868 -172.282 -2.26523 -181.105
lowerback -8.3952 -0.158159 -2.96354
upperback 1.84169 0.153808 -1.12928
thorax 6.64597 -0.0302271 0.503427
lowerneck 1.619 -2.63422 -4.3129
upperneck -8.76293 -3.42518 9.29755
head -2.89861 -2.05168 3.99808
rclavicle 3.8266e-015 -9.54166e-015
rhumerus -37.0948 -20.3255 -77.6136
rradius 31.4445
rwrist 28.1696
rhand -0.446721 -5.66503
rfingers 7.12502
rthumb 25.1624 -34.0266
lclavicle 3.8266e-015 -9.54166e-015
lhumerus -32.913 15.3383 76.0999
lradius 19.3493
lwrist -29.5022
lhand -7.57435 8.63801
lfingers 7.12502
lthumb 18.3184 37.7955
rfemur -13.4138 -5.78975 19.1309
rtibia 58.3802
rfoot -3.7668 16.5353
rtoes 20.0411
lfemur -31.197 1.94563 -25.0809
ltibia 35.2317
lfoot -6.28524 -12.5031
ltoes -4.68887
147
root -2.64468 15.6767 39.3371 -172.396 -2.18221 -181.525
lowerback -8.22524 -0.296258 -3.53311
upperback 1.98013 0.0241339 -1.19393
thorax 6.70141 -0.120247 0.736464
lowerneck 1.47775 -2.56748 -4.27074
upperneck -8.86693 -3.3406 9.22259
head -2.91538 -2.01193 3.96107
rclavicle 1.04362e-015 2.62396e-014
rhumerus -36.8087 -20.3833 -77.6018
rradius 31.6443
rwrist 28.6209
rhand -0.585468 -5.53315
rfingers 7.12502
rthumb 25.0295 -33.9133
lclavicle 1.04362e-015 2.62396e-014
lhumerus -32.756 14.7556 76.4985
lradius 19.6828
lwrist -28.8132
lhand -7.71039 8.9418
lfingers 7.12502
lthumb 18.1875 38.1115
rfemur -15.6004 -6.46669 18.3551
rtibia 62.1073
rfoot -4.14929 14.3122
rtoes 17.7873
lfemur -30.1551 2.27109 -25.6627
ltibia 34.7676
lfoot -6.55063 -12.9353
ltoes -4.03896
148
root -2.67099 15.6935 39.1898 -172.575 -2.12497 -181.739
lowerback -8.01963 -0.387643 -3.87531
upperback 2.13081 -0.0701513 -1.23412
thorax 6.74913 -0.184263 0.872651
lowerneck 1.50201 -2.52949 -4.34942
upperneck -9.03642 -3.29074 9.30261
head -2.9806 -1.99559 4.01123
rclavicle -1.59028e-015 3.57812e-015
rhumerus -36.5953 -20.4781 -77.6828
rradius 31.8269
rwrist 28.3862
rhand -1.03274 -5.67773
rfingers 7.12502
rthumb 24.6008 -34.1169
lclavicle -1.59028e-015 3.57812e-015
lhumerus -32.4937 14.4343 76.7123
lradius 19.7878
lwrist -28.6097
lhand -7.92645 8.89964
lfingers 7.12502
lthumb 17.9796 38.0886
rfemur -17.6928 -6.9853 17.9051
rtibia 65.4086
rfoot -6.34904 12.2363
rtoes 16.4932
lfemur -29.1637 2.68973 -26.0353
ltibia 34.403
lfoot -7.01962 -13.4173
ltoes -5.35995
149
root -2.69477 15.7065 39.0501 -172.853 -2.17216 -181.753
lowerback -7.67572 -0.47563 -4.04251
upperback 2.27596 -0.188966 -1.17804
thorax 6.71278 -0.252491 1.00966
lowerneck 1.68199 -2.478 -4.58093
upperneck -9.47461 -3.17284 9.78748
head -2.8333 -1.98218 3.81389
rclavicle -1.2424e-015 -2.06736e-014
rhumerus -36.5053 -20.7375 -77.586
rradius 32.0815
rwrist 28.5334
rhand -1.03916 -5.80631
rfingers 7.12502
rthumb 24.5947 -34.2463
lclavicle -1.2424e-015 -2.06736e-014
lhumerus -32.1374 14.4128 76.8598
lradius 19.5766
lwrist -28.801
lhand -8.16642 8.71494
lfingers 7.12502
lthumb 17.7487 37.9249
rfemur -19.7243 -7.50325 17.7598
rtibia 68.11
rfoot -8.44659 10.6214
rtoes 16.1398
lfemur -28.2183 3.45962 -26.263
ltibia 34.1152
lfoot -7.20666 -14.1846
ltoes -5.67563
150
root -2.71913 15.7221 38.9143 -173.182 -2.38959 -181.798
lowerback -7.26919 -0.562131 -4.09007
upperback 2.44794 -0.319291 -1.23023
thorax 6.66835 -0.321325 0.965361
lowerneck 1.75686 -2.48238 -4.48702
upperneck -9.50727 -3.17594 9.7943
head -2.85683 -1.99053 3.80261
rclavicle 4.42296e-015 -2.22639e-014
rhumerus -36.4923 -21.4298 -77.4439
rradius 32.1629
rwrist 29.0032
rhand -1.11718 -5.96185
rfingers 7.12502
rthumb 24.5199 -34.412
lclavicle 4.42296e-015 -2.22639e-014
lhumerus -31.5431 14.1908 76.9414
lradius 19.1385
lwrist -29.2071
lhand -8.25549 8.67787
lfingers 7.12502
lthumb 17.663 37.8956
rfemur -21.6667 -8.02133 17.592
rtibia 70.1456
rfoot -10.0431 9.83184
rtoes 15.958
lfemur -27.1936 3.73813 -26.4023
ltibia 33.9058
lfoot -7.47097 -14.7065
ltoes -4.94927
